<mxfile host="app.diagrams.net" agent="Mozilla/5.0 (Windows NT 10.0; Win64; x64) AppleWebKit/537.36 (KHTML, like Gecko) Chrome/137.0.0.0 Safari/537.36" version="27.1.6">
  <diagram id="AY_0Cxxtf09E6vgNWH-u" name="Latest">
    <mxGraphModel dx="1281" dy="1704" grid="1" gridSize="10" guides="1" tooltips="1" connect="1" arrows="1" fold="1" page="1" pageScale="1" pageWidth="850" pageHeight="1100" math="0" shadow="0">
      <root>
        <mxCell id="0" />
        <mxCell id="1" parent="0" />
        <mxCell id="RcY5iZPlQ3GrNX5qKJHC-1" value="AWS Cloud" style="points=[[0,0],[0.25,0],[0.5,0],[0.75,0],[1,0],[1,0.25],[1,0.5],[1,0.75],[1,1],[0.75,1],[0.5,1],[0.25,1],[0,1],[0,0.75],[0,0.5],[0,0.25]];outlineConnect=0;gradientColor=none;html=1;whiteSpace=wrap;fontSize=12;fontStyle=0;container=1;pointerEvents=0;collapsible=0;recursiveResize=0;shape=mxgraph.aws4.group;grIcon=mxgraph.aws4.group_aws_cloud_alt;strokeColor=#232F3E;fillColor=none;verticalAlign=top;align=left;spacingLeft=30;fontColor=#232F3E;dashed=0;" parent="1" vertex="1">
          <mxGeometry x="511" y="-30" width="1503.5" height="1190" as="geometry" />
        </mxCell>
        <mxCell id="RcY5iZPlQ3GrNX5qKJHC-2" value="&lt;b&gt;4. Integration&lt;/b&gt;" style="rounded=0;whiteSpace=wrap;html=1;verticalAlign=top;align=left;" parent="RcY5iZPlQ3GrNX5qKJHC-1" vertex="1">
          <mxGeometry x="914" y="500" width="291" height="320" as="geometry" />
        </mxCell>
        <mxCell id="RcY5iZPlQ3GrNX5qKJHC-3" value="&lt;b&gt;3. Validation&lt;/b&gt;" style="rounded=0;whiteSpace=wrap;html=1;verticalAlign=top;align=left;" parent="RcY5iZPlQ3GrNX5qKJHC-1" vertex="1">
          <mxGeometry x="514" y="500" width="340" height="320" as="geometry" />
        </mxCell>
        <mxCell id="RcY5iZPlQ3GrNX5qKJHC-4" value="&lt;b&gt;2. Extraction&lt;/b&gt;" style="rounded=0;whiteSpace=wrap;html=1;verticalAlign=top;align=left;" parent="RcY5iZPlQ3GrNX5qKJHC-1" vertex="1">
          <mxGeometry x="196" y="500" width="270" height="320" as="geometry" />
        </mxCell>
        <mxCell id="RcY5iZPlQ3GrNX5qKJHC-5" value="&lt;b&gt;1. Ingestion&lt;/b&gt;" style="rounded=0;whiteSpace=wrap;html=1;verticalAlign=top;align=left;" parent="RcY5iZPlQ3GrNX5qKJHC-1" vertex="1">
          <mxGeometry x="50" y="500" width="110" height="320" as="geometry" />
        </mxCell>
        <mxCell id="RcY5iZPlQ3GrNX5qKJHC-6" value="" style="sketch=0;points=[[0,0,0],[0.25,0,0],[0.5,0,0],[0.75,0,0],[1,0,0],[0,1,0],[0.25,1,0],[0.5,1,0],[0.75,1,0],[1,1,0],[0,0.25,0],[0,0.5,0],[0,0.75,0],[1,0.25,0],[1,0.5,0],[1,0.75,0]];outlineConnect=0;fontColor=#232F3E;fillColor=#7AA116;strokeColor=#ffffff;dashed=0;verticalLabelPosition=bottom;verticalAlign=top;align=center;html=1;fontSize=12;fontStyle=0;aspect=fixed;shape=mxgraph.aws4.resourceIcon;resIcon=mxgraph.aws4.s3;" parent="RcY5iZPlQ3GrNX5qKJHC-1" vertex="1">
          <mxGeometry x="70" y="580" width="78" height="78" as="geometry" />
        </mxCell>
        <mxCell id="RcY5iZPlQ3GrNX5qKJHC-7" value="Bedrock Data Automation" style="sketch=0;points=[[0,0,0],[0.25,0,0],[0.5,0,0],[0.75,0,0],[1,0,0],[0,1,0],[0.25,1,0],[0.5,1,0],[0.75,1,0],[1,1,0],[0,0.25,0],[0,0.5,0],[0,0.75,0],[1,0.25,0],[1,0.5,0],[1,0.75,0]];outlineConnect=0;fontColor=#232F3E;fillColor=#01A88D;strokeColor=#ffffff;dashed=0;verticalLabelPosition=bottom;verticalAlign=top;align=center;html=1;fontSize=12;fontStyle=0;aspect=fixed;shape=mxgraph.aws4.resourceIcon;resIcon=mxgraph.aws4.bedrock;" parent="RcY5iZPlQ3GrNX5qKJHC-1" vertex="1">
          <mxGeometry x="361" y="580" width="78" height="78" as="geometry" />
        </mxCell>
        <mxCell id="RcY5iZPlQ3GrNX5qKJHC-8" value="" style="sketch=0;points=[[0,0,0],[0.25,0,0],[0.5,0,0],[0.75,0,0],[1,0,0],[0,1,0],[0.25,1,0],[0.5,1,0],[0.75,1,0],[1,1,0],[0,0.25,0],[0,0.5,0],[0,0.75,0],[1,0.25,0],[1,0.5,0],[1,0.75,0]];outlineConnect=0;fontColor=#232F3E;fillColor=#ED7100;strokeColor=#ffffff;dashed=0;verticalLabelPosition=bottom;verticalAlign=top;align=center;html=1;fontSize=12;fontStyle=0;aspect=fixed;shape=mxgraph.aws4.resourceIcon;resIcon=mxgraph.aws4.lambda;" parent="RcY5iZPlQ3GrNX5qKJHC-1" vertex="1">
          <mxGeometry x="211" y="580" width="78" height="78" as="geometry" />
        </mxCell>
        <mxCell id="RcY5iZPlQ3GrNX5qKJHC-9" value="Output S3 bucket" style="sketch=0;points=[[0,0,0],[0.25,0,0],[0.5,0,0],[0.75,0,0],[1,0,0],[0,1,0],[0.25,1,0],[0.5,1,0],[0.75,1,0],[1,1,0],[0,0.25,0],[0,0.5,0],[0,0.75,0],[1,0.25,0],[1,0.5,0],[1,0.75,0]];outlineConnect=0;fontColor=#232F3E;fillColor=#7AA116;strokeColor=#ffffff;dashed=0;verticalLabelPosition=bottom;verticalAlign=top;align=center;html=1;fontSize=12;fontStyle=0;aspect=fixed;shape=mxgraph.aws4.resourceIcon;resIcon=mxgraph.aws4.s3;" parent="RcY5iZPlQ3GrNX5qKJHC-1" vertex="1">
          <mxGeometry x="361" y="712" width="78" height="78" as="geometry" />
        </mxCell>
        <mxCell id="RcY5iZPlQ3GrNX5qKJHC-10" value="EventBridge" style="sketch=0;points=[[0,0,0],[0.25,0,0],[0.5,0,0],[0.75,0,0],[1,0,0],[0,1,0],[0.25,1,0],[0.5,1,0],[0.75,1,0],[1,1,0],[0,0.25,0],[0,0.5,0],[0,0.75,0],[1,0.25,0],[1,0.5,0],[1,0.75,0]];outlineConnect=0;fontColor=#232F3E;fillColor=#E7157B;strokeColor=#ffffff;dashed=0;verticalLabelPosition=bottom;verticalAlign=top;align=center;html=1;fontSize=12;fontStyle=0;aspect=fixed;shape=mxgraph.aws4.resourceIcon;resIcon=mxgraph.aws4.eventbridge;" parent="RcY5iZPlQ3GrNX5qKJHC-1" vertex="1">
          <mxGeometry x="544" y="580" width="78" height="78" as="geometry" />
        </mxCell>
        <mxCell id="RcY5iZPlQ3GrNX5qKJHC-61" value="" style="edgeStyle=orthogonalEdgeStyle;rounded=0;orthogonalLoop=1;jettySize=auto;html=1;" parent="RcY5iZPlQ3GrNX5qKJHC-1" source="RcY5iZPlQ3GrNX5qKJHC-11" target="RcY5iZPlQ3GrNX5qKJHC-28" edge="1">
          <mxGeometry relative="1" as="geometry">
            <mxPoint x="871" y="619" as="targetPoint" />
          </mxGeometry>
        </mxCell>
        <mxCell id="RcY5iZPlQ3GrNX5qKJHC-11" value="Validation Lambda&amp;nbsp;&lt;div&gt;Function&lt;/div&gt;" style="sketch=0;points=[[0,0,0],[0.25,0,0],[0.5,0,0],[0.75,0,0],[1,0,0],[0,1,0],[0.25,1,0],[0.5,1,0],[0.75,1,0],[1,1,0],[0,0.25,0],[0,0.5,0],[0,0.75,0],[1,0.25,0],[1,0.5,0],[1,0.75,0]];outlineConnect=0;fontColor=#232F3E;fillColor=#ED7100;strokeColor=#ffffff;dashed=0;verticalLabelPosition=bottom;verticalAlign=top;align=center;html=1;fontSize=12;fontStyle=0;aspect=fixed;shape=mxgraph.aws4.resourceIcon;resIcon=mxgraph.aws4.lambda;" parent="RcY5iZPlQ3GrNX5qKJHC-1" vertex="1">
          <mxGeometry x="714" y="580" width="78" height="78" as="geometry" />
        </mxCell>
        <mxCell id="RcY5iZPlQ3GrNX5qKJHC-64" value="" style="edgeStyle=orthogonalEdgeStyle;rounded=0;orthogonalLoop=1;jettySize=auto;html=1;" parent="RcY5iZPlQ3GrNX5qKJHC-1" source="RcY5iZPlQ3GrNX5qKJHC-12" target="RcY5iZPlQ3GrNX5qKJHC-57" edge="1">
          <mxGeometry relative="1" as="geometry">
            <mxPoint x="1107" y="747" as="targetPoint" />
          </mxGeometry>
        </mxCell>
        <mxCell id="RcY5iZPlQ3GrNX5qKJHC-12" value="" style="sketch=0;points=[[0,0,0],[0.25,0,0],[0.5,0,0],[0.75,0,0],[1,0,0],[0,1,0],[0.25,1,0],[0.5,1,0],[0.75,1,0],[1,1,0],[0,0.25,0],[0,0.5,0],[0,0.75,0],[1,0.25,0],[1,0.5,0],[1,0.75,0]];outlineConnect=0;fontColor=#232F3E;fillColor=#ED7100;strokeColor=#ffffff;dashed=0;verticalLabelPosition=bottom;verticalAlign=top;align=center;html=1;fontSize=12;fontStyle=0;aspect=fixed;shape=mxgraph.aws4.resourceIcon;resIcon=mxgraph.aws4.lambda;" parent="RcY5iZPlQ3GrNX5qKJHC-1" vertex="1">
          <mxGeometry x="1068" y="580" width="78" height="78" as="geometry" />
        </mxCell>
        <mxCell id="RcY5iZPlQ3GrNX5qKJHC-13" value="" style="endArrow=classic;html=1;rounded=0;exitX=1;exitY=0.5;exitDx=0;exitDy=0;exitPerimeter=0;" parent="RcY5iZPlQ3GrNX5qKJHC-1" source="RcY5iZPlQ3GrNX5qKJHC-6" target="RcY5iZPlQ3GrNX5qKJHC-8" edge="1">
          <mxGeometry width="50" height="50" relative="1" as="geometry">
            <mxPoint x="292" y="620" as="sourcePoint" />
            <mxPoint x="342" y="570" as="targetPoint" />
          </mxGeometry>
        </mxCell>
        <mxCell id="RcY5iZPlQ3GrNX5qKJHC-15" value="" style="endArrow=classic;html=1;rounded=0;" parent="RcY5iZPlQ3GrNX5qKJHC-1" source="RcY5iZPlQ3GrNX5qKJHC-7" target="RcY5iZPlQ3GrNX5qKJHC-9" edge="1">
          <mxGeometry width="50" height="50" relative="1" as="geometry">
            <mxPoint x="401" y="660" as="sourcePoint" />
            <mxPoint x="451" y="610" as="targetPoint" />
          </mxGeometry>
        </mxCell>
        <mxCell id="RcY5iZPlQ3GrNX5qKJHC-16" value="" style="endArrow=classic;html=1;rounded=0;" parent="RcY5iZPlQ3GrNX5qKJHC-1" source="RcY5iZPlQ3GrNX5qKJHC-7" target="RcY5iZPlQ3GrNX5qKJHC-10" edge="1">
          <mxGeometry width="50" height="50" relative="1" as="geometry">
            <mxPoint x="441" y="620" as="sourcePoint" />
            <mxPoint x="491" y="570" as="targetPoint" />
          </mxGeometry>
        </mxCell>
        <mxCell id="RcY5iZPlQ3GrNX5qKJHC-17" value="" style="endArrow=classic;html=1;rounded=0;exitX=1;exitY=0.5;exitDx=0;exitDy=0;exitPerimeter=0;" parent="RcY5iZPlQ3GrNX5qKJHC-1" source="RcY5iZPlQ3GrNX5qKJHC-10" target="RcY5iZPlQ3GrNX5qKJHC-11" edge="1">
          <mxGeometry width="50" height="50" relative="1" as="geometry">
            <mxPoint x="724" y="620" as="sourcePoint" />
            <mxPoint x="764" y="570" as="targetPoint" />
          </mxGeometry>
        </mxCell>
        <mxCell id="RcY5iZPlQ3GrNX5qKJHC-18" value="" style="endArrow=classic;startArrow=classic;html=1;rounded=0;exitX=1;exitY=0.5;exitDx=0;exitDy=0;exitPerimeter=0;entryX=0.25;entryY=1;entryDx=0;entryDy=0;entryPerimeter=0;" parent="RcY5iZPlQ3GrNX5qKJHC-1" target="RcY5iZPlQ3GrNX5qKJHC-11" edge="1">
          <mxGeometry width="50" height="50" relative="1" as="geometry">
            <mxPoint x="439" y="751" as="sourcePoint" />
            <mxPoint x="621" y="690" as="targetPoint" />
            <Array as="points">
              <mxPoint x="734" y="750" />
            </Array>
          </mxGeometry>
        </mxCell>
        <mxCell id="RcY5iZPlQ3GrNX5qKJHC-19" value="2" style="ellipse;whiteSpace=wrap;html=1;aspect=fixed;" parent="RcY5iZPlQ3GrNX5qKJHC-1" vertex="1">
          <mxGeometry x="10" y="600" width="20" height="20" as="geometry" />
        </mxCell>
        <mxCell id="RcY5iZPlQ3GrNX5qKJHC-20" value="3" style="ellipse;whiteSpace=wrap;html=1;aspect=fixed;" parent="RcY5iZPlQ3GrNX5qKJHC-1" vertex="1">
          <mxGeometry x="171" y="600" width="20" height="20" as="geometry" />
        </mxCell>
        <mxCell id="RcY5iZPlQ3GrNX5qKJHC-21" value="4" style="ellipse;whiteSpace=wrap;html=1;aspect=fixed;" parent="RcY5iZPlQ3GrNX5qKJHC-1" vertex="1">
          <mxGeometry x="311" y="600" width="20" height="20" as="geometry" />
        </mxCell>
        <mxCell id="RcY5iZPlQ3GrNX5qKJHC-22" value="5" style="ellipse;whiteSpace=wrap;html=1;aspect=fixed;" parent="RcY5iZPlQ3GrNX5qKJHC-1" vertex="1">
          <mxGeometry x="249" y="700" width="20" height="20" as="geometry" />
        </mxCell>
        <mxCell id="RcY5iZPlQ3GrNX5qKJHC-23" value="7" style="ellipse;whiteSpace=wrap;html=1;aspect=fixed;" parent="RcY5iZPlQ3GrNX5qKJHC-1" vertex="1">
          <mxGeometry x="471" y="600" width="20" height="20" as="geometry" />
        </mxCell>
        <mxCell id="RcY5iZPlQ3GrNX5qKJHC-24" value="8" style="ellipse;whiteSpace=wrap;html=1;aspect=fixed;" parent="RcY5iZPlQ3GrNX5qKJHC-1" vertex="1">
          <mxGeometry x="644" y="600" width="20" height="20" as="geometry" />
        </mxCell>
        <mxCell id="RcY5iZPlQ3GrNX5qKJHC-25" value="9" style="ellipse;whiteSpace=wrap;html=1;aspect=fixed;" parent="RcY5iZPlQ3GrNX5qKJHC-1" vertex="1">
          <mxGeometry x="601" y="730" width="20" height="20" as="geometry" />
        </mxCell>
        <mxCell id="RcY5iZPlQ3GrNX5qKJHC-26" value="10" style="ellipse;whiteSpace=wrap;html=1;aspect=fixed;" parent="RcY5iZPlQ3GrNX5qKJHC-1" vertex="1">
          <mxGeometry x="752" y="460" width="20" height="20" as="geometry" />
        </mxCell>
        <mxCell id="RcY5iZPlQ3GrNX5qKJHC-27" value="" style="edgeStyle=orthogonalEdgeStyle;rounded=0;orthogonalLoop=1;jettySize=auto;html=1;" parent="RcY5iZPlQ3GrNX5qKJHC-1" source="RcY5iZPlQ3GrNX5qKJHC-28" target="RcY5iZPlQ3GrNX5qKJHC-12" edge="1">
          <mxGeometry relative="1" as="geometry" />
        </mxCell>
        <mxCell id="RcY5iZPlQ3GrNX5qKJHC-28" value="EventBridge" style="sketch=0;points=[[0,0,0],[0.25,0,0],[0.5,0,0],[0.75,0,0],[1,0,0],[0,1,0],[0.25,1,0],[0.5,1,0],[0.75,1,0],[1,1,0],[0,0.25,0],[0,0.5,0],[0,0.75,0],[1,0.25,0],[1,0.5,0],[1,0.75,0]];outlineConnect=0;fontColor=#232F3E;fillColor=#E7157B;strokeColor=#ffffff;dashed=0;verticalLabelPosition=bottom;verticalAlign=top;align=center;html=1;fontSize=12;fontStyle=0;aspect=fixed;shape=mxgraph.aws4.resourceIcon;resIcon=mxgraph.aws4.eventbridge;" parent="RcY5iZPlQ3GrNX5qKJHC-1" vertex="1">
          <mxGeometry x="931" y="580" width="78" height="78" as="geometry" />
        </mxCell>
        <mxCell id="RcY5iZPlQ3GrNX5qKJHC-29" value="" style="endArrow=classic;html=1;rounded=0;exitX=0.5;exitY=1;exitDx=0;exitDy=0;exitPerimeter=0;entryX=0.5;entryY=0;entryDx=0;entryDy=0;entryPerimeter=0;" parent="RcY5iZPlQ3GrNX5qKJHC-1" source="RcY5iZPlQ3GrNX5qKJHC-11" target="RcY5iZPlQ3GrNX5qKJHC-48" edge="1">
          <mxGeometry width="50" height="50" relative="1" as="geometry">
            <mxPoint x="731" y="630" as="sourcePoint" />
            <mxPoint x="781" y="580" as="targetPoint" />
          </mxGeometry>
        </mxCell>
        <mxCell id="RcY5iZPlQ3GrNX5qKJHC-30" value="11" style="ellipse;whiteSpace=wrap;html=1;aspect=fixed;" parent="RcY5iZPlQ3GrNX5qKJHC-1" vertex="1">
          <mxGeometry x="754" y="741" width="20" height="20" as="geometry" />
        </mxCell>
        <mxCell id="RcY5iZPlQ3GrNX5qKJHC-31" value="12" style="ellipse;whiteSpace=wrap;html=1;aspect=fixed;" parent="RcY5iZPlQ3GrNX5qKJHC-1" vertex="1">
          <mxGeometry x="869" y="600" width="20" height="20" as="geometry" />
        </mxCell>
        <mxCell id="RcY5iZPlQ3GrNX5qKJHC-48" value="" style="sketch=0;points=[[0,0,0],[0.25,0,0],[0.5,0,0],[0.75,0,0],[1,0,0],[0,1,0],[0.25,1,0],[0.5,1,0],[0.75,1,0],[1,1,0],[0,0.25,0],[0,0.5,0],[0,0.75,0],[1,0.25,0],[1,0.5,0],[1,0.75,0]];outlineConnect=0;fontColor=#232F3E;fillColor=#C925D1;strokeColor=#ffffff;dashed=0;verticalLabelPosition=bottom;verticalAlign=top;align=center;html=1;fontSize=12;fontStyle=0;aspect=fixed;shape=mxgraph.aws4.resourceIcon;resIcon=mxgraph.aws4.dynamodb;" parent="RcY5iZPlQ3GrNX5qKJHC-1" vertex="1">
          <mxGeometry x="714" y="910" width="78" height="78" as="geometry" />
        </mxCell>
        <mxCell id="RcY5iZPlQ3GrNX5qKJHC-32" value="&amp;nbsp; &amp;nbsp; &amp;nbsp; &amp;nbsp; &amp;nbsp; &amp;nbsp; &amp;nbsp;Knowledge Base for Bedrock&amp;nbsp;" style="rounded=0;whiteSpace=wrap;html=1;align=left;verticalAlign=top;" parent="RcY5iZPlQ3GrNX5qKJHC-1" vertex="1">
          <mxGeometry x="514" y="50" width="535" height="350" as="geometry" />
        </mxCell>
        <mxCell id="RcY5iZPlQ3GrNX5qKJHC-33" value="&lt;div&gt;Embedding Models&lt;/div&gt;" style="sketch=0;points=[[0,0,0],[0.25,0,0],[0.5,0,0],[0.75,0,0],[1,0,0],[0,1,0],[0.25,1,0],[0.5,1,0],[0.75,1,0],[1,1,0],[0,0.25,0],[0,0.5,0],[0,0.75,0],[1,0.25,0],[1,0.5,0],[1,0.75,0]];outlineConnect=0;fontColor=#232F3E;fillColor=#01A88D;strokeColor=#ffffff;dashed=0;verticalLabelPosition=bottom;verticalAlign=top;align=center;html=1;fontSize=12;fontStyle=0;aspect=fixed;shape=mxgraph.aws4.resourceIcon;resIcon=mxgraph.aws4.bedrock;" parent="RcY5iZPlQ3GrNX5qKJHC-1" vertex="1">
          <mxGeometry x="584" y="98" width="78" height="78" as="geometry" />
        </mxCell>
        <mxCell id="RcY5iZPlQ3GrNX5qKJHC-34" value="" style="endArrow=classic;html=1;rounded=0;entryX=1.038;entryY=0.359;entryDx=0;entryDy=0;entryPerimeter=0;exitX=0;exitY=0.25;exitDx=0;exitDy=0;" parent="RcY5iZPlQ3GrNX5qKJHC-1" source="RcY5iZPlQ3GrNX5qKJHC-40" target="RcY5iZPlQ3GrNX5qKJHC-33" edge="1">
          <mxGeometry width="50" height="50" relative="1" as="geometry">
            <mxPoint x="864" y="220" as="sourcePoint" />
            <mxPoint x="914" y="170" as="targetPoint" />
          </mxGeometry>
        </mxCell>
        <mxCell id="RcY5iZPlQ3GrNX5qKJHC-35" value="" style="endArrow=classic;html=1;rounded=0;exitX=1;exitY=0.75;exitDx=0;exitDy=0;exitPerimeter=0;entryX=0;entryY=0.75;entryDx=0;entryDy=0;" parent="RcY5iZPlQ3GrNX5qKJHC-1" source="RcY5iZPlQ3GrNX5qKJHC-33" target="RcY5iZPlQ3GrNX5qKJHC-40" edge="1">
          <mxGeometry width="50" height="50" relative="1" as="geometry">
            <mxPoint x="714" y="260" as="sourcePoint" />
            <mxPoint x="764" y="210" as="targetPoint" />
          </mxGeometry>
        </mxCell>
        <mxCell id="RcY5iZPlQ3GrNX5qKJHC-36" value="&lt;div&gt;Amazon OpenSearch&amp;nbsp;&lt;/div&gt;&lt;div&gt;Vector Database&lt;/div&gt;" style="sketch=0;points=[[0,0,0],[0.25,0,0],[0.5,0,0],[0.75,0,0],[1,0,0],[0,1,0],[0.25,1,0],[0.5,1,0],[0.75,1,0],[1,1,0],[0,0.25,0],[0,0.5,0],[0,0.75,0],[1,0.25,0],[1,0.5,0],[1,0.75,0]];outlineConnect=0;fontColor=#232F3E;fillColor=#8C4FFF;strokeColor=#ffffff;dashed=0;verticalLabelPosition=bottom;verticalAlign=top;align=center;html=1;fontSize=12;fontStyle=0;aspect=fixed;shape=mxgraph.aws4.resourceIcon;resIcon=mxgraph.aws4.elasticsearch_service;" parent="RcY5iZPlQ3GrNX5qKJHC-1" vertex="1">
          <mxGeometry x="594" y="278" width="78" height="78" as="geometry" />
        </mxCell>
        <mxCell id="RcY5iZPlQ3GrNX5qKJHC-37" value="" style="endArrow=classic;html=1;rounded=0;exitX=0;exitY=0.25;exitDx=0;exitDy=0;" parent="RcY5iZPlQ3GrNX5qKJHC-1" source="RcY5iZPlQ3GrNX5qKJHC-39" edge="1">
          <mxGeometry width="50" height="50" relative="1" as="geometry">
            <mxPoint x="664" y="302" as="sourcePoint" />
            <mxPoint x="674" y="300" as="targetPoint" />
          </mxGeometry>
        </mxCell>
        <mxCell id="RcY5iZPlQ3GrNX5qKJHC-38" value="" style="endArrow=classic;html=1;rounded=0;entryX=0;entryY=0.75;entryDx=0;entryDy=0;" parent="RcY5iZPlQ3GrNX5qKJHC-1" target="RcY5iZPlQ3GrNX5qKJHC-39" edge="1">
          <mxGeometry width="50" height="50" relative="1" as="geometry">
            <mxPoint x="674" y="333" as="sourcePoint" />
            <mxPoint x="714" y="332" as="targetPoint" />
          </mxGeometry>
        </mxCell>
        <mxCell id="RcY5iZPlQ3GrNX5qKJHC-39" value="Store and Index Embeddings" style="rounded=1;whiteSpace=wrap;html=1;" parent="RcY5iZPlQ3GrNX5qKJHC-1" vertex="1">
          <mxGeometry x="724" y="283" width="120" height="67" as="geometry" />
        </mxCell>
        <mxCell id="RcY5iZPlQ3GrNX5qKJHC-40" value="Generate Embeddings" style="rounded=1;whiteSpace=wrap;html=1;" parent="RcY5iZPlQ3GrNX5qKJHC-1" vertex="1">
          <mxGeometry x="724" y="111" width="120" height="60" as="geometry" />
        </mxCell>
        <mxCell id="RcY5iZPlQ3GrNX5qKJHC-41" value="C" style="ellipse;whiteSpace=wrap;html=1;aspect=fixed;" parent="RcY5iZPlQ3GrNX5qKJHC-1" vertex="1">
          <mxGeometry x="784" y="239" width="20" height="20" as="geometry" />
        </mxCell>
        <mxCell id="RcY5iZPlQ3GrNX5qKJHC-42" value="B" style="ellipse;whiteSpace=wrap;html=1;aspect=fixed;" parent="RcY5iZPlQ3GrNX5qKJHC-1" vertex="1">
          <mxGeometry x="889" y="120" width="20" height="20" as="geometry" />
        </mxCell>
        <mxCell id="RcY5iZPlQ3GrNX5qKJHC-43" value="" style="endArrow=classic;html=1;rounded=0;entryX=1;entryY=0.5;entryDx=0;entryDy=0;exitX=0;exitY=0.5;exitDx=0;exitDy=0;exitPerimeter=0;" parent="RcY5iZPlQ3GrNX5qKJHC-1" source="RcY5iZPlQ3GrNX5qKJHC-44" target="RcY5iZPlQ3GrNX5qKJHC-40" edge="1">
          <mxGeometry width="50" height="50" relative="1" as="geometry">
            <mxPoint x="942.5" y="-50" as="sourcePoint" />
            <mxPoint x="992.5" y="-100" as="targetPoint" />
          </mxGeometry>
        </mxCell>
        <mxCell id="RcY5iZPlQ3GrNX5qKJHC-44" value="S3 Bucket" style="sketch=0;points=[[0,0,0],[0.25,0,0],[0.5,0,0],[0.75,0,0],[1,0,0],[0,1,0],[0.25,1,0],[0.5,1,0],[0.75,1,0],[1,1,0],[0,0.25,0],[0,0.5,0],[0,0.75,0],[1,0.25,0],[1,0.5,0],[1,0.75,0]];outlineConnect=0;fontColor=#232F3E;fillColor=#7AA116;strokeColor=#ffffff;dashed=0;verticalLabelPosition=bottom;verticalAlign=top;align=center;html=1;fontSize=12;fontStyle=0;aspect=fixed;shape=mxgraph.aws4.resourceIcon;resIcon=mxgraph.aws4.s3;" parent="RcY5iZPlQ3GrNX5qKJHC-1" vertex="1">
          <mxGeometry x="909" y="102" width="78" height="78" as="geometry" />
        </mxCell>
        <mxCell id="RcY5iZPlQ3GrNX5qKJHC-45" value="A" style="ellipse;whiteSpace=wrap;html=1;aspect=fixed;" parent="RcY5iZPlQ3GrNX5qKJHC-1" vertex="1">
          <mxGeometry x="1152.5" y="120" width="20" height="20" as="geometry" />
        </mxCell>
        <mxCell id="RcY5iZPlQ3GrNX5qKJHC-46" value="" style="endArrow=classic;html=1;rounded=0;exitX=0.5;exitY=1;exitDx=0;exitDy=0;entryX=0.5;entryY=0;entryDx=0;entryDy=0;" parent="RcY5iZPlQ3GrNX5qKJHC-1" source="RcY5iZPlQ3GrNX5qKJHC-40" target="RcY5iZPlQ3GrNX5qKJHC-39" edge="1">
          <mxGeometry width="50" height="50" relative="1" as="geometry">
            <mxPoint x="1482.5" y="-50" as="sourcePoint" />
            <mxPoint x="1532.5" y="-100" as="targetPoint" />
          </mxGeometry>
        </mxCell>
        <mxCell id="RcY5iZPlQ3GrNX5qKJHC-47" value="&lt;div&gt;&amp;nbsp;&lt;/div&gt;" style="sketch=0;points=[[0,0,0],[0.25,0,0],[0.5,0,0],[0.75,0,0],[1,0,0],[0,1,0],[0.25,1,0],[0.5,1,0],[0.75,1,0],[1,1,0],[0,0.25,0],[0,0.5,0],[0,0.75,0],[1,0.25,0],[1,0.5,0],[1,0.75,0]];outlineConnect=0;fontColor=#232F3E;fillColor=#01A88D;strokeColor=#ffffff;dashed=0;verticalLabelPosition=bottom;verticalAlign=top;align=center;html=1;fontSize=12;fontStyle=0;aspect=fixed;shape=mxgraph.aws4.resourceIcon;resIcon=mxgraph.aws4.bedrock;" parent="RcY5iZPlQ3GrNX5qKJHC-1" vertex="1">
          <mxGeometry x="514" y="50" width="40" height="40" as="geometry" />
        </mxCell>
        <mxCell id="RcY5iZPlQ3GrNX5qKJHC-57" value="SNS" style="sketch=0;points=[[0,0,0],[0.25,0,0],[0.5,0,0],[0.75,0,0],[1,0,0],[0,1,0],[0.25,1,0],[0.5,1,0],[0.75,1,0],[1,1,0],[0,0.25,0],[0,0.5,0],[0,0.75,0],[1,0.25,0],[1,0.5,0],[1,0.75,0]];outlineConnect=0;fontColor=#232F3E;fillColor=#E7157B;strokeColor=#ffffff;dashed=0;verticalLabelPosition=bottom;verticalAlign=top;align=center;html=1;fontSize=12;fontStyle=0;aspect=fixed;shape=mxgraph.aws4.resourceIcon;resIcon=mxgraph.aws4.sns;" parent="RcY5iZPlQ3GrNX5qKJHC-1" vertex="1">
          <mxGeometry x="1068" y="1060" width="78" height="78" as="geometry" />
        </mxCell>
        <mxCell id="RcY5iZPlQ3GrNX5qKJHC-59" value="" style="endArrow=classic;startArrow=classic;html=1;rounded=0;entryX=0.445;entryY=1;entryDx=0;entryDy=0;exitX=0.5;exitY=0;exitDx=0;exitDy=0;exitPerimeter=0;entryPerimeter=0;" parent="RcY5iZPlQ3GrNX5qKJHC-1" source="RcY5iZPlQ3GrNX5qKJHC-11" target="RcY5iZPlQ3GrNX5qKJHC-32" edge="1">
          <mxGeometry width="50" height="50" relative="1" as="geometry">
            <mxPoint x="780" y="470" as="sourcePoint" />
            <mxPoint x="830" y="420" as="targetPoint" />
          </mxGeometry>
        </mxCell>
        <mxCell id="RcY5iZPlQ3GrNX5qKJHC-65" value="" style="endArrow=classic;startArrow=classic;html=1;rounded=0;entryX=0.5;entryY=1;entryDx=0;entryDy=0;entryPerimeter=0;exitX=0;exitY=0.5;exitDx=0;exitDy=0;exitPerimeter=0;" parent="RcY5iZPlQ3GrNX5qKJHC-1" source="RcY5iZPlQ3GrNX5qKJHC-48" target="RcY5iZPlQ3GrNX5qKJHC-8" edge="1">
          <mxGeometry width="50" height="50" relative="1" as="geometry">
            <mxPoint x="629" y="720" as="sourcePoint" />
            <mxPoint x="679" y="670" as="targetPoint" />
            <Array as="points">
              <mxPoint x="249" y="949" />
            </Array>
          </mxGeometry>
        </mxCell>
        <mxCell id="RcY5iZPlQ3GrNX5qKJHC-66" value="" style="endArrow=classic;startArrow=classic;html=1;rounded=0;entryX=0.25;entryY=1;entryDx=0;entryDy=0;entryPerimeter=0;exitX=1;exitY=0.5;exitDx=0;exitDy=0;exitPerimeter=0;" parent="RcY5iZPlQ3GrNX5qKJHC-1" source="RcY5iZPlQ3GrNX5qKJHC-48" target="RcY5iZPlQ3GrNX5qKJHC-12" edge="1">
          <mxGeometry width="50" height="50" relative="1" as="geometry">
            <mxPoint x="939" y="920" as="sourcePoint" />
            <mxPoint x="989" y="870" as="targetPoint" />
            <Array as="points">
              <mxPoint x="1088" y="950" />
            </Array>
          </mxGeometry>
        </mxCell>
        <mxCell id="RcY5iZPlQ3GrNX5qKJHC-67" value="" style="endArrow=classic;startArrow=classic;html=1;rounded=0;entryX=0;entryY=0.5;entryDx=0;entryDy=0;entryPerimeter=0;" parent="RcY5iZPlQ3GrNX5qKJHC-1" target="RcY5iZPlQ3GrNX5qKJHC-7" edge="1">
          <mxGeometry width="50" height="50" relative="1" as="geometry">
            <mxPoint x="289" y="620" as="sourcePoint" />
            <mxPoint x="339" y="570" as="targetPoint" />
          </mxGeometry>
        </mxCell>
        <mxCell id="RcY5iZPlQ3GrNX5qKJHC-68" value="6" style="ellipse;whiteSpace=wrap;html=1;aspect=fixed;" parent="RcY5iZPlQ3GrNX5qKJHC-1" vertex="1">
          <mxGeometry x="399" y="680" width="20" height="20" as="geometry" />
        </mxCell>
        <mxCell id="RcY5iZPlQ3GrNX5qKJHC-69" value="14" style="ellipse;whiteSpace=wrap;html=1;aspect=fixed;" parent="RcY5iZPlQ3GrNX5qKJHC-1" vertex="1">
          <mxGeometry x="1109" y="850" width="20" height="20" as="geometry" />
        </mxCell>
        <mxCell id="RcY5iZPlQ3GrNX5qKJHC-72" value="15" style="ellipse;whiteSpace=wrap;html=1;aspect=fixed;" parent="RcY5iZPlQ3GrNX5qKJHC-1" vertex="1">
          <mxGeometry x="844" y="1080" width="20" height="20" as="geometry" />
        </mxCell>
        <mxCell id="RcY5iZPlQ3GrNX5qKJHC-49" value="UI- Document upload&lt;br&gt;(Streamlit or re-use any existing one)" style="rounded=0;whiteSpace=wrap;html=1;" parent="1" vertex="1">
          <mxGeometry x="350" y="559" width="120" height="60" as="geometry" />
        </mxCell>
        <mxCell id="RcY5iZPlQ3GrNX5qKJHC-50" value="" style="endArrow=classic;html=1;rounded=0;" parent="1" source="RcY5iZPlQ3GrNX5qKJHC-49" target="RcY5iZPlQ3GrNX5qKJHC-6" edge="1">
          <mxGeometry width="50" height="50" relative="1" as="geometry">
            <mxPoint x="680" y="833" as="sourcePoint" />
            <mxPoint x="730" y="783" as="targetPoint" />
          </mxGeometry>
        </mxCell>
        <mxCell id="RcY5iZPlQ3GrNX5qKJHC-51" value="Employee/beneficiary" style="verticalLabelPosition=bottom;sketch=0;html=1;fillColor=#A153A0;strokeColor=#ffffff;verticalAlign=top;align=center;points=[[0,0.5,0],[0.125,0.25,0],[0.25,0,0],[0.5,0,0],[0.75,0,0],[0.875,0.25,0],[1,0.5,0],[0.875,0.75,0],[0.75,1,0],[0.5,1,0],[0.125,0.75,0]];pointerEvents=1;shape=mxgraph.cisco_safe.compositeIcon;bgIcon=ellipse;resIcon=mxgraph.cisco_safe.design.users;" parent="1" vertex="1">
          <mxGeometry x="160" y="544" width="80" height="90" as="geometry" />
        </mxCell>
        <mxCell id="RcY5iZPlQ3GrNX5qKJHC-52" value="" style="endArrow=classic;html=1;rounded=0;exitX=1;exitY=0.5;exitDx=0;exitDy=0;exitPerimeter=0;entryX=0;entryY=0.5;entryDx=0;entryDy=0;" parent="1" source="RcY5iZPlQ3GrNX5qKJHC-51" target="RcY5iZPlQ3GrNX5qKJHC-49" edge="1">
          <mxGeometry width="50" height="50" relative="1" as="geometry">
            <mxPoint x="310" y="863" as="sourcePoint" />
            <mxPoint x="360" y="813" as="targetPoint" />
          </mxGeometry>
        </mxCell>
        <mxCell id="RcY5iZPlQ3GrNX5qKJHC-53" value="1" style="ellipse;whiteSpace=wrap;html=1;aspect=fixed;" parent="1" vertex="1">
          <mxGeometry x="290" y="570" width="20" height="20" as="geometry" />
        </mxCell>
        <mxCell id="RcY5iZPlQ3GrNX5qKJHC-54" value="&lt;div&gt;Benefits Claim&lt;/div&gt;&lt;div&gt;Standard Operating Procedures&lt;/div&gt;" style="sketch=0;outlineConnect=0;fontColor=#232F3E;gradientColor=none;fillColor=#E7157B;strokeColor=none;dashed=0;verticalLabelPosition=bottom;verticalAlign=top;align=center;html=1;fontSize=12;fontStyle=0;aspect=fixed;pointerEvents=1;shape=mxgraph.aws4.documents;" parent="1" vertex="1">
          <mxGeometry x="2110" y="72" width="64" height="78" as="geometry" />
        </mxCell>
        <mxCell id="RcY5iZPlQ3GrNX5qKJHC-55" value="" style="endArrow=classic;html=1;rounded=0;entryX=1;entryY=0.5;entryDx=0;entryDy=0;entryPerimeter=0;" parent="1" source="RcY5iZPlQ3GrNX5qKJHC-54" target="RcY5iZPlQ3GrNX5qKJHC-44" edge="1">
          <mxGeometry width="50" height="50" relative="1" as="geometry">
            <mxPoint x="1662.5" y="230" as="sourcePoint" />
            <mxPoint x="1712.5" y="180" as="targetPoint" />
          </mxGeometry>
        </mxCell>
        <mxCell id="RcY5iZPlQ3GrNX5qKJHC-58" value="" style="endArrow=classic;html=1;rounded=0;exitX=0;exitY=0.5;exitDx=0;exitDy=0;exitPerimeter=0;entryX=0.5;entryY=1;entryDx=0;entryDy=0;entryPerimeter=0;" parent="1" source="RcY5iZPlQ3GrNX5qKJHC-57" target="RcY5iZPlQ3GrNX5qKJHC-51" edge="1">
          <mxGeometry width="50" height="50" relative="1" as="geometry">
            <mxPoint x="400" y="980" as="sourcePoint" />
            <mxPoint x="450" y="930" as="targetPoint" />
            <Array as="points">
              <mxPoint x="200" y="1070" />
            </Array>
          </mxGeometry>
        </mxCell>
        <mxCell id="RcY5iZPlQ3GrNX5qKJHC-73" value="Claim Approval/Rejection Email" style="edgeLabel;html=1;align=center;verticalAlign=middle;resizable=0;points=[];" parent="RcY5iZPlQ3GrNX5qKJHC-58" vertex="1" connectable="0">
          <mxGeometry x="0.8406" y="-2" relative="1" as="geometry">
            <mxPoint as="offset" />
          </mxGeometry>
        </mxCell>
        <mxCell id="RcY5iZPlQ3GrNX5qKJHC-62" value="13" style="ellipse;whiteSpace=wrap;html=1;aspect=fixed;" parent="1" vertex="1">
          <mxGeometry x="1540" y="570" width="20" height="20" as="geometry" />
        </mxCell>
      </root>
    </mxGraphModel>
  </diagram>
</mxfile>
